<svg xmlns="http://www.w3.org/2000/svg" viewBox="0 0 512 512" role="img" aria-label="Horizontal stacked poker cards logo">
  <rect width="512" height="512" rx="96" fill="#0F172A"/>
  <rect x="90" y="158" width="332" height="196" rx="0" fill="none" stroke="#E2E8F0" stroke-width="2"/>
  <g transform="translate(64 132)">
    <g transform="translate(0 0)">
      <rect x="0" y="0" width="112" height="160" rx="20" fill="#F8FAFC" stroke="#CBD5E1" stroke-width="2"/>
      <text x="56" y="62" text-anchor="middle" font-family="Inter, Arial, sans-serif" font-size="40" font-weight="800" fill="#0F172A">T</text>
      <text x="56" y="108" text-anchor="middle" font-family="Inter, Arial, sans-serif" font-size="34" font-weight="700" fill="#0F172A">♠</text>
    </g>
    <g transform="translate(72 24)">
      <rect x="0" y="0" width="112" height="160" rx="20" fill="#F8FAFC" stroke="#CBD5E1" stroke-width="2"/>
      <text x="56" y="62" text-anchor="middle" font-family="Inter, Arial, sans-serif" font-size="40" font-weight="800" fill="#0F172A">J</text>
      <text x="56" y="108" text-anchor="middle" font-family="Inter, Arial, sans-serif" font-size="34" font-weight="700" fill="#DC2626">♥</text>
    </g>
    <g transform="translate(144 48)">
      <rect x="0" y="0" width="112" height="160" rx="20" fill="#F8FAFC" stroke="#CBD5E1" stroke-width="2"/>
      <text x="56" y="62" text-anchor="middle" font-family="Inter, Arial, sans-serif" font-size="40" font-weight="800" fill="#0F172A">Q</text>
      <text x="56" y="108" text-anchor="middle" font-family="Inter, Arial, sans-serif" font-size="34" font-weight="700" fill="#0F172A">♣</text>
    </g>
    <g transform="translate(216 72)">
      <rect x="0" y="0" width="112" height="160" rx="20" fill="#F8FAFC" stroke="#CBD5E1" stroke-width="2"/>
      <text x="56" y="62" text-anchor="middle" font-family="Inter, Arial, sans-serif" font-size="40" font-weight="800" fill="#0F172A">K</text>
      <text x="56" y="108" text-anchor="middle" font-family="Inter, Arial, sans-serif" font-size="34" font-weight="700" fill="#DC2626">♦</text>
    </g>
    <g transform="translate(288 96)">
      <rect x="0" y="0" width="112" height="160" rx="20" fill="#F8FAFC" stroke="#CBD5E1" stroke-width="2"/>
      <text x="56" y="62" text-anchor="middle" font-family="Inter, Arial, sans-serif" font-size="40" font-weight="800" fill="#0F172A">A</text>
      <text x="56" y="108" text-anchor="middle" font-family="Inter, Arial, sans-serif" font-size="34" font-weight="700" fill="#0F172A">♠</text>
    </g>
  </g>
</svg>
